<svg width="15" height="15" viewBox="0 0 15 15" fill="none" xmlns="http://www.w3.org/2000/svg">
<path fill-rule="evenodd" clip-rule="evenodd" d="M2 2.5C2 2.22386 2.22386 2 2.5 2H4.5C4.77614 2 5 2.22386 5 2.5C5 2.77614 4.77614 3 4.5 3H2.5C2.22386 3 2 2.77614 2 2.5ZM6 2.5C6 2.22386 6.22386 2 6.5 2H8.5C8.77614 2 9 2.22386 9 2.5C9 2.77614 8.77614 3 8.5 3H6.5C6.22386 3 6 2.77614 6 2.5ZM10 2.5C10 2.22386 10.2239 2 10.5 2H12.5C12.7761 2 13 2.22386 13 2.5C13 2.77614 12.7761 3 12.5 3H10.5C10.2239 3 10 2.77614 10 2.5ZM2 4.5C2 4.22386 2.22386 4 2.5 4H4.5C4.77614 4 5 4.22386 5 4.5V10.5C5 10.7761 4.77614 11 4.5 11H2.5C2.22386 11 2 10.7761 2 10.5V4.5ZM3 5V10H4V5H3ZM6 4.5C6 4.22386 6.22386 4 6.5 4H8.5C8.77614 4 9 4.22386 9 4.5V12.5C9 12.7761 8.77614 13 8.5 13H6.5C6.22386 13 6 12.7761 6 12.5V4.5ZM7 5V12H8V5H7ZM10 4.5C10 4.22386 10.2239 4 10.5 4H12.5C12.7761 4 13 4.22386 13 4.5V8.5C13 8.77614 12.7761 9 12.5 9H10.5C10.2239 9 10 8.77614 10 8.5V4.5ZM11 5V8H12V5H11Z" fill="#01BBFF"/>
</svg>
