<svg fill="none" height="15" viewBox="0 0 15 15" width="15" xmlns="http://www.w3.org/2000/svg"><path clip-rule="evenodd" d="m2 2.5c0-.27614.22386-.5.5-.5h2c.27614 0 .5.22386.5.5s-.22386.5-.5.5h-2c-.27614 0-.5-.22386-.5-.5zm4 0c0-.27614.22386-.5.5-.5h2c.27614 0 .5.22386.5.5s-.22386.5-.5.5h-2c-.27614 0-.5-.22386-.5-.5zm4 0c0-.27614.2239-.5.5-.5h2c.2761 0 .5.22386.5.5s-.2239.5-.5.5h-2c-.2761 0-.5-.22386-.5-.5zm-8 2c0-.27614.22386-.5.5-.5h2c.27614 0 .5.22386.5.5v6c0 .2761-.22386.5-.5.5h-2c-.27614 0-.5-.2239-.5-.5zm1 .5v5h1v-5zm3-.5c0-.27614.22386-.5.5-.5h2c.27614 0 .5.22386.5.5v8c0 .2761-.22386.5-.5.5h-2c-.27614 0-.5-.2239-.5-.5zm1 .5v7h1v-7zm3-.5c0-.27614.2239-.5.5-.5h2c.2761 0 .5.22386.5.5v4c0 .27614-.2239.5-.5.5h-2c-.2761 0-.5-.22386-.5-.5zm1 .5v3h1v-3z" fill="white" fill-rule="evenodd"/></svg>