<svg width="165" height="51" viewBox="0 0 165 51" fill="none" xmlns="http://www.w3.org/2000/svg">
<path fill-rule="evenodd" clip-rule="evenodd" d="M16.9787 38.2159L13.2691 36.0706L7.5169 32.7439C7.20639 32.5644 6.94853 32.3061 6.76926 31.995C6.58999 31.684 6.49561 31.3312 6.49561 30.972L6.49561 26.6813L6.49561 20.028C6.49561 19.6689 6.58999 19.3161 6.76926 19.005C6.94853 18.694 7.20639 18.4357 7.5169 18.2561L11.2265 16.1108L16.9787 12.7841C17.2893 12.6045 17.6415 12.51 18 12.51C18.3586 12.51 18.7108 12.6045 19.0213 12.7841L22.731 14.9295L28.4832 18.2561C28.7937 18.4357 29.0515 18.694 29.2308 19.005C29.4101 19.3161 29.5045 19.6689 29.5045 20.028L29.5045 24.3188L29.5045 30.972C29.5045 31.3312 29.4101 31.684 29.2308 31.995C29.0515 32.3061 28.7937 32.5644 28.4832 32.7439L24.7735 34.8893L19.0213 38.2159C18.7108 38.3955 18.3586 38.49 18 38.49C17.6415 38.49 17.2893 38.3955 16.9787 38.2159Z" fill="#67D6FF"/>
<path opacity="0.706573" fill-rule="evenodd" clip-rule="evenodd" d="M19.4581 13.0223C19.2994 12.9306 19.1407 12.8388 18.982 12.747C18.4396 12.4334 17.5603 12.4334 17.018 12.747C16.8594 12.8387 16.7009 12.9304 16.5423 13.0221C16 13.3357 15.3167 14.0361 15.0162 14.5865L12.7632 18.7129C12.4079 19.3635 11.8738 19.8985 11.2242 20.2544L7.47746 22.307C7.17632 22.472 6.92506 22.7151 6.75001 23.0109C6.57497 23.3066 6.48261 23.6441 6.4826 23.9879V27.0125C6.48261 27.3563 6.57497 27.6938 6.75001 27.9895C6.92506 28.2853 7.17632 28.5284 7.47746 28.6933L11.2242 30.746C11.8738 31.1018 12.4079 31.6368 12.7632 32.2875L15.0162 36.4138C15.3167 36.9642 16 37.6646 16.5423 37.9782C16.7009 38.0699 16.8594 38.1616 17.018 38.2533C17.5603 38.567 18.4396 38.567 18.982 38.2533C19.1407 38.1616 19.2994 38.0698 19.4581 37.978C20.0004 37.6643 20.6837 36.9639 20.9842 36.4135L23.237 32.2875C23.5923 31.6368 24.1264 31.1018 24.776 30.746L28.5226 28.6934C28.8237 28.5285 29.075 28.2853 29.25 27.9896C29.4251 27.6939 29.5174 27.3564 29.5174 27.0126V23.9878C29.5174 23.644 29.4251 23.3065 29.25 23.0108C29.075 22.715 28.8237 22.4719 28.5226 22.3069L24.776 20.2544C24.1264 19.8985 23.5923 19.3635 23.237 18.7128L20.9842 14.5868C20.6837 14.0364 20.0004 13.336 19.4581 13.0223Z" fill="#01BBFF"/>
<path fill-rule="evenodd" clip-rule="evenodd" d="M13.8715 23.5344L18.7869 27.168C18.9115 27.2601 19.0167 27.3759 19.0967 27.5088C19.1766 27.6416 19.2296 27.789 19.2527 27.9424C19.2758 28.0958 19.2685 28.2522 19.2312 28.4028C19.194 28.5533 19.1274 28.6951 19.0355 28.8199L18.76 29.1938C18.668 29.3186 18.5524 29.4241 18.4198 29.5042C18.2872 29.5842 18.1401 29.6373 17.9869 29.6605C17.8338 29.6836 17.6776 29.6763 17.5273 29.6389C17.377 29.6016 17.2355 29.535 17.1109 29.4429L12.1955 25.8093C12.0709 25.7172 11.9656 25.6014 11.8857 25.4685C11.8057 25.3357 11.7527 25.1883 11.7296 25.0349C11.7066 24.8815 11.7139 24.7251 11.7511 24.5745C11.7884 24.424 11.8549 24.2822 11.9469 24.1574L12.2224 23.7835C12.3143 23.6587 12.4299 23.5532 12.5626 23.4731C12.6952 23.3931 12.8423 23.34 12.9954 23.3168C13.1486 23.2937 13.3047 23.301 13.4551 23.3384C13.6054 23.3757 13.7469 23.4423 13.8715 23.5344Z" fill="white"/>
<path fill-rule="evenodd" clip-rule="evenodd" d="M16.541 26.9861L21.6823 21.6776C21.7901 21.5662 21.9181 21.4779 22.059 21.4177C22.1999 21.3574 22.3509 21.3264 22.5034 21.3264C22.6559 21.3264 22.8069 21.3574 22.9478 21.4177C23.0887 21.4779 23.2167 21.5662 23.3245 21.6776L23.9434 22.3166C24.1612 22.5415 24.2836 22.8465 24.2836 23.1645C24.2836 23.4825 24.1612 23.7875 23.9434 24.0123L18.8022 29.3209C18.5844 29.5457 18.289 29.6721 17.981 29.6721C17.673 29.6721 17.3777 29.5457 17.1599 29.3209L16.541 28.6818C16.4332 28.5705 16.3476 28.4383 16.2893 28.2928C16.2309 28.1474 16.2009 27.9914 16.2009 27.834C16.2009 27.6765 16.2309 27.5206 16.2893 27.3751C16.3476 27.2297 16.4332 27.0975 16.541 26.9861Z" fill="white"/>
<path d="M40.896 36V21H36.264V18.12H48.744V21H44.184V36H40.896ZM53.0021 36.288C52.0901 36.288 51.2981 36.136 50.6261 35.832C49.9541 35.528 49.4341 35.096 49.0661 34.536C48.6981 33.96 48.5141 33.296 48.5141 32.544C48.5141 31.824 48.6741 31.184 48.9941 30.624C49.3141 30.048 49.8101 29.568 50.4821 29.184C51.1541 28.8 52.0021 28.528 53.0261 28.368L57.2981 27.672V30.072L53.6261 30.696C53.0021 30.808 52.5381 31.008 52.2341 31.296C51.9301 31.584 51.7781 31.96 51.7781 32.424C51.7781 32.872 51.9461 33.232 52.2821 33.504C52.6341 33.76 53.0661 33.888 53.5781 33.888C54.2341 33.888 54.8101 33.752 55.3061 33.48C55.8181 33.192 56.2101 32.8 56.4821 32.304C56.7701 31.808 56.9141 31.264 56.9141 30.672V27.312C56.9141 26.752 56.6901 26.288 56.2421 25.92C55.8101 25.536 55.2341 25.344 54.5141 25.344C53.8421 25.344 53.2421 25.528 52.7141 25.896C52.2021 26.248 51.8261 26.72 51.5861 27.312L49.0181 26.064C49.2741 25.376 49.6741 24.784 50.2181 24.288C50.7781 23.776 51.4341 23.376 52.1861 23.088C52.9381 22.8 53.7541 22.656 54.6341 22.656C55.7061 22.656 56.6501 22.856 57.4661 23.256C58.2821 23.64 58.9141 24.184 59.3621 24.888C59.8261 25.576 60.0581 26.384 60.0581 27.312V36H57.0821V33.768L57.7541 33.72C57.4181 34.28 57.0181 34.752 56.5541 35.136C56.0901 35.504 55.5621 35.792 54.9701 36C54.3781 36.192 53.7221 36.288 53.0021 36.288ZM67.932 36.288C66.54 36.288 65.324 35.96 64.284 35.304C63.26 34.632 62.556 33.728 62.172 32.592L64.524 31.464C64.86 32.2 65.324 32.776 65.916 33.192C66.524 33.608 67.196 33.816 67.932 33.816C68.508 33.816 68.964 33.688 69.3 33.432C69.636 33.176 69.804 32.84 69.804 32.424C69.804 32.168 69.732 31.96 69.588 31.8C69.46 31.624 69.276 31.48 69.036 31.368C68.812 31.24 68.564 31.136 68.292 31.056L66.156 30.456C65.052 30.136 64.212 29.648 63.636 28.992C63.076 28.336 62.796 27.56 62.796 26.664C62.796 25.864 62.996 25.168 63.396 24.576C63.812 23.968 64.38 23.496 65.1 23.16C65.836 22.824 66.676 22.656 67.62 22.656C68.852 22.656 69.94 22.952 70.884 23.544C71.828 24.136 72.5 24.968 72.9 26.04L70.5 27.168C70.276 26.576 69.9 26.104 69.372 25.752C68.844 25.4 68.252 25.224 67.596 25.224C67.068 25.224 66.652 25.344 66.348 25.584C66.044 25.824 65.892 26.136 65.892 26.52C65.892 26.76 65.956 26.968 66.084 27.144C66.212 27.32 66.388 27.464 66.612 27.576C66.852 27.688 67.124 27.792 67.428 27.888L69.516 28.512C70.588 28.832 71.412 29.312 71.988 29.952C72.58 30.592 72.876 31.376 72.876 32.304C72.876 33.088 72.668 33.784 72.252 34.392C71.836 34.984 71.26 35.448 70.524 35.784C69.788 36.12 68.924 36.288 67.932 36.288ZM75.2921 36V17.832H78.4361V29.736L77.2361 29.376L83.3801 22.944H87.2921L82.4681 28.2L87.3881 36H83.7881L79.5161 29.232L81.3881 28.848L77.4521 33.072L78.4361 31.152V36H75.2921ZM89.4077 36V18.12H96.9437C98.1277 18.12 99.1357 18.328 99.9677 18.744C100.816 19.144 101.464 19.72 101.912 20.472C102.376 21.208 102.608 22.104 102.608 23.16C102.608 23.976 102.384 24.744 101.936 25.464C101.504 26.168 100.808 26.752 99.8477 27.216V25.704C100.728 26.04 101.424 26.456 101.936 26.952C102.448 27.448 102.808 28 103.016 28.608C103.224 29.216 103.328 29.856 103.328 30.528C103.328 32.24 102.76 33.584 101.624 34.56C100.504 35.52 98.9437 36 96.9437 36H89.4077ZM92.6717 33.12H97.2797C98.1277 33.12 98.7997 32.888 99.2957 32.424C99.8077 31.944 100.064 31.312 100.064 30.528C100.064 29.744 99.8077 29.112 99.2957 28.632C98.7997 28.152 98.1277 27.912 97.2797 27.912H92.6717V33.12ZM92.6717 25.056H97.1117C97.7837 25.056 98.3197 24.864 98.7197 24.48C99.1197 24.08 99.3197 23.568 99.3197 22.944C99.3197 22.32 99.1197 21.824 98.7197 21.456C98.3197 21.088 97.7837 20.904 97.1117 20.904H92.6717V25.056ZM110.393 36.288C109.385 36.288 108.505 36.064 107.753 35.616C107.017 35.168 106.449 34.544 106.049 33.744C105.665 32.944 105.473 32.008 105.473 30.936V22.944H108.617V30.672C108.617 31.216 108.721 31.696 108.929 32.112C109.153 32.512 109.465 32.832 109.865 33.072C110.281 33.296 110.745 33.408 111.257 33.408C111.769 33.408 112.225 33.296 112.625 33.072C113.025 32.832 113.337 32.504 113.561 32.088C113.785 31.672 113.897 31.176 113.897 30.6V22.944H117.041V36H114.065V33.432L114.329 33.888C114.025 34.688 113.521 35.288 112.817 35.688C112.129 36.088 111.321 36.288 110.393 36.288ZM126.036 36.288C124.772 36.288 123.644 35.992 122.652 35.4C121.66 34.792 120.876 33.968 120.3 32.928C119.724 31.888 119.436 30.736 119.436 29.472C119.436 28.192 119.724 27.04 120.3 26.016C120.876 24.992 121.66 24.176 122.652 23.568C123.66 22.96 124.78 22.656 126.012 22.656C127.004 22.656 127.884 22.856 128.652 23.256C129.436 23.64 130.052 24.184 130.5 24.888L130.02 25.536V17.832H133.164V36H130.188V33.48L130.524 34.104C130.076 34.808 129.452 35.352 128.652 35.736C127.852 36.104 126.98 36.288 126.036 36.288ZM126.372 33.408C127.092 33.408 127.724 33.24 128.268 32.904C128.812 32.568 129.236 32.104 129.54 31.512C129.86 30.92 130.02 30.24 130.02 29.472C130.02 28.72 129.86 28.048 129.54 27.456C129.236 26.848 128.812 26.376 128.268 26.04C127.724 25.704 127.092 25.536 126.372 25.536C125.668 25.536 125.036 25.712 124.476 26.064C123.916 26.4 123.476 26.864 123.156 27.456C122.852 28.032 122.7 28.704 122.7 29.472C122.7 30.24 122.852 30.92 123.156 31.512C123.476 32.104 123.916 32.568 124.476 32.904C125.036 33.24 125.668 33.408 126.372 33.408ZM142.161 36.288C140.897 36.288 139.769 35.992 138.777 35.4C137.785 34.792 137.001 33.968 136.425 32.928C135.849 31.888 135.561 30.736 135.561 29.472C135.561 28.192 135.849 27.04 136.425 26.016C137.001 24.992 137.785 24.176 138.777 23.568C139.785 22.96 140.905 22.656 142.137 22.656C143.129 22.656 144.009 22.856 144.777 23.256C145.561 23.64 146.177 24.184 146.625 24.888L146.145 25.536V17.832H149.289V36H146.313V33.48L146.649 34.104C146.201 34.808 145.577 35.352 144.777 35.736C143.977 36.104 143.105 36.288 142.161 36.288ZM142.497 33.408C143.217 33.408 143.849 33.24 144.393 32.904C144.937 32.568 145.361 32.104 145.665 31.512C145.985 30.92 146.145 30.24 146.145 29.472C146.145 28.72 145.985 28.048 145.665 27.456C145.361 26.848 144.937 26.376 144.393 26.04C143.849 25.704 143.217 25.536 142.497 25.536C141.793 25.536 141.161 25.712 140.601 26.064C140.041 26.4 139.601 26.864 139.281 27.456C138.977 28.032 138.825 28.704 138.825 29.472C138.825 30.24 138.977 30.92 139.281 31.512C139.601 32.104 140.041 32.568 140.601 32.904C141.161 33.24 141.793 33.408 142.497 33.408ZM153.798 41.304C153.446 41.304 153.102 41.272 152.766 41.208C152.43 41.16 152.126 41.072 151.854 40.944V38.304C152.062 38.352 152.31 38.4 152.598 38.448C152.902 38.496 153.182 38.52 153.438 38.52C154.158 38.52 154.678 38.352 154.998 38.016C155.334 37.68 155.63 37.24 155.886 36.696L156.75 34.68L156.702 37.32L151.014 22.944H154.398L158.382 33.552H157.182L161.142 22.944H164.55L158.862 37.32C158.526 38.168 158.118 38.888 157.638 39.48C157.158 40.072 156.598 40.52 155.958 40.824C155.334 41.144 154.614 41.304 153.798 41.304Z" fill="white"/>
</svg>
